<svg width="76" height="18" viewBox="0 0 76 18" fill="none" xmlns="http://www.w3.org/2000/svg">
<path d="M75.7326 13.6734C75.0014 16.2324 72.8324 17.7435 69.8347 17.7435C66.0571 17.7435 63.498 15.0382 63.498 11.0656C63.498 7.2393 66.1789 4.46094 69.8347 4.46094C74.1484 4.46094 75.9032 7.77547 75.9276 11.3581C75.9276 11.48 75.9276 11.6749 75.9032 11.8943H66.2033C66.4226 14.1121 67.8362 15.4769 69.8347 15.4769C71.2726 15.4769 72.4912 14.9164 72.9299 13.6734H75.7326ZM66.2277 9.8958H73.1492C72.9786 8.0923 71.9306 6.65438 69.8347 6.65438C67.8362 6.65438 66.4958 7.94608 66.2277 9.8958Z" fill="white"/>
<path d="M50.5488 12.6728V4.80078H53.3516V12.0879C53.3516 14.0376 53.9852 15.3049 55.7644 15.3049C57.4947 15.3049 58.8108 13.7939 58.8108 10.65V4.80078H61.6379V17.4009H58.8595V15.1831C58.1771 16.621 57.0317 17.7421 55.0819 17.7421C51.7918 17.7421 50.5488 15.573 50.5488 12.6728Z" fill="white"/>
<path d="M39.9342 4.80078C41.0065 8.11532 42.0545 11.2836 43.1025 14.5738H43.1269C44.053 11.5517 45.1985 8.13969 46.2464 4.80078H49.2441C47.6844 9.01707 46.1733 13.1846 44.6379 17.4009H41.5183L36.9121 4.80078H39.9342Z" fill="white"/>
<path d="M24.9785 17.4023V4.80214H27.7569V7.01995C28.4149 5.58203 29.5847 4.46094 31.5345 4.46094C34.8003 4.46094 36.0676 6.63001 36.0676 9.53023V17.4023H33.2649V10.1151C33.2649 8.16542 32.6068 6.8981 30.8521 6.8981C29.0973 6.8981 27.8056 8.40913 27.8056 11.5531V17.4023H24.9785Z" fill="white"/>
<path d="M12.0898 8.64988C12.4066 6.65141 14.0882 4.43359 17.3784 4.43359C21.5459 4.43359 22.6914 6.94387 22.6914 9.64911V14.4991C22.6914 15.4496 22.7401 16.6681 22.8864 17.3993H20.0105C19.9618 16.9118 19.9374 16.4244 19.9374 15.9126V15.3277H19.913C19.4987 16.3513 18.4264 17.7161 15.9161 17.7161C13.0646 17.7161 11.4805 15.9614 11.4805 13.9629C11.4805 10.4777 15.7455 10.1853 17.5734 9.89283C19.1819 9.64911 19.913 9.33228 19.913 8.25993C19.913 7.2607 18.9625 6.62704 17.4271 6.62704C16.0623 6.62704 15.0631 7.40693 14.7706 8.64988H12.0898ZM14.2832 13.8654C14.2832 14.8646 15.1362 15.5958 16.6229 15.5958C18.3045 15.5958 19.9618 14.5478 19.9618 11.5501V10.234C19.6937 10.9408 19.0357 11.5501 16.891 11.9644C15.1606 12.2812 14.2832 12.8174 14.2832 13.8654Z" fill="white"/>
<path d="M0 17.4013V0H10.9672V2.4859H2.94896V7.36022H10.3092V9.82175H2.94896V17.4013H0Z" fill="white"/>
</svg>
