<?xml version="1.0" encoding="UTF-8"?>
<svg id="Layer_1" xmlns="http://www.w3.org/2000/svg" xmlns:xlink="http://www.w3.org/1999/xlink" viewBox="0 0 768 204">
  <defs>
    <style>
      .cls-1 {
        fill: url(#linear-gradient-2);
      }

      .cls-2 {
        fill: none;
      }

      .cls-3 {
        fill: url(#linear-gradient-4);
      }

      .cls-4 {
        fill: url(#linear-gradient-3);
      }

      .cls-5 {
        clip-path: url(#clippath-1);
      }

      .cls-6 {
        fill: #FFFFFF;
      }

      .cls-7 {
        clip-path: url(#clippath-3);
      }

      .cls-8 {
        clip-path: url(#clippath-2);
      }

      .cls-9 {
        fill: url(#linear-gradient);
      }

      .cls-10 {
        clip-path: url(#clippath);
      }
    </style>
    <clipPath id="clippath">
      <path class="cls-2" d="M138.76,182.21l25.08-29.54S98.23,111.09,59.41,23.15c0,0-37.44-2.75-46.38-4.47,0,0,51.53,91.72,125.73,163.52"/>
    </clipPath>
    <linearGradient id="linear-gradient" x1="1.08" y1="773.43" x2="2.08" y2="773.43" gradientTransform="translate(-149.81 116744.01) scale(150.81 -150.81)" gradientUnits="userSpaceOnUse">
      <stop offset="0" stop-color="#0c90cb"/>
      <stop offset=".33" stop-color="#0c8bcb"/>
      <stop offset=".68" stop-color="#0c7ecb"/>
      <stop offset="1" stop-color="#0c6ccb"/>
    </linearGradient>
    <clipPath id="clippath-1">
      <path class="cls-2" d="M106.47,82.24c34.62,33.51,74.2,48.78,74.2,48.78l14.43-16.83s-28.86-13.4-61.15-37.45c-32.29-24.05-41.74-52.22-41.74-52.22l-26.97-.86s7.1,25.54,41.23,58.57"/>
    </clipPath>
    <linearGradient id="linear-gradient-2" x1="1.09" y1="773.93" x2="2.09" y2="773.93" gradientTransform="translate(-76.64 100577.95) scale(129.86 -129.86)" xlink:href="#linear-gradient"/>
    <clipPath id="clippath-2">
      <path class="cls-2" d="M96.34,24.87c8.93,18.21,23.15,32.62,45.18,48.09,20.78,14.6,66.47,26.11,66.47,26.11l16.04-20.29c-3.78-.77-38.9-8.68-61.39-20.42-30.92-16.15-40.37-33.49-40.37-33.49h-25.94Z"/>
    </clipPath>
    <linearGradient id="linear-gradient-3" x1="1.09" y1="773.89" x2="2.09" y2="773.89" gradientTransform="translate(-43.38 98878.51) scale(127.69 -127.69)" xlink:href="#linear-gradient"/>
    <clipPath id="clippath-3">
      <path class="cls-2" d="M127.08,24.87s9.67,16.21,41.05,30.57c31.39,14.37,64.93,11.34,64.93,11.34l34.87-50.41c-42.77,9.71-140.85,8.5-140.85,8.5"/>
    </clipPath>
    <linearGradient id="linear-gradient-4" x1="1.09" y1="773.34" x2="2.09" y2="773.34" gradientTransform="translate(-25.8 108967.73) scale(140.85 -140.85)" xlink:href="#linear-gradient"/>
  </defs>
  <g class="cls-10">
    <rect class="cls-9" x="13.03" y="18.68" width="150.81" height="163.52"/>
  </g>
  <g class="cls-5">
    <rect class="cls-1" x="65.25" y="23.66" width="129.86" height="107.35"/>
  </g>
  <g class="cls-8">
    <rect class="cls-4" x="96.34" y="24.87" width="127.69" height="74.2"/>
  </g>
  <g class="cls-7">
    <rect class="cls-3" x="127.08" y="16.36" width="140.85" height="53.44"/>
  </g>
  <path class="cls-6" d="M621.27,174.6h36.55l38.87-53.44-23.19,1.1,35.78,52.34h37.43l-48.8-69.12,1.66,15.57,46.71-63.71h-36.55l-34.78,51.89,20.54.22-35-52.12h-37.21l48.69,68.02.33-15.35-51.01,64.59ZM524.33,148.37c-3.17-2.02-4.75-5.06-4.75-9.11,0-4.27,1.86-7.31,5.58-9.11,3.72-1.8,9.33-3.07,16.84-3.81,6.33-.66,12.68-1.56,19.05-2.7,6.37-1.14,11.98-2.6,16.84-4.36l-8.5-8.28v11.81c0,6.77-1.47,12.26-4.42,16.45-2.95,4.2-6.76,7.27-11.43,9.22-4.68,1.95-9.7,2.93-15.07,2.93-6.26,0-10.97-1.01-14.13-3.04M549.67,174.21c6.29-1.88,11.74-4.56,16.34-8.06,4.6-3.49,7.93-7.67,9.99-12.53l-7.07-4.86c0,3.53.2,6.61.61,9.22.4,2.61,1.05,5.21,1.93,7.78.73,2.14,1.64,4.01,2.7,5.63,1.07,1.62,1.86,2.69,2.37,3.2h33.68c-.74-.66-1.66-1.84-2.76-3.53-1.1-1.69-2.02-3.83-2.76-6.4-.66-2.28-1.09-4.8-1.27-7.56-.18-2.76-.28-5.65-.28-8.67v-50.68c0-9.64-2.67-17.59-8.01-23.85-5.34-6.26-12.39-10.95-21.15-14.08-8.76-3.13-18.29-4.69-28.6-4.69-11.04,0-20.94,1.68-29.7,5.02-8.76,3.35-15.7,8.26-20.81,14.74-5.12,6.48-7.67,14.43-7.67,23.85h33.68c0-5.81,2.08-10.14,6.24-12.97,4.16-2.83,10.18-4.25,18.05-4.25,7.43,0,13.23,1.25,17.39,3.75,4.16,2.5,6.24,5.93,6.24,10.27v.22c0,2.58-2.45,4.38-7.34,5.41-4.9,1.03-13.79,2.17-26.67,3.42-8.83.88-17.02,2.71-24.57,5.47-7.55,2.76-13.6,6.75-18.16,11.98-4.57,5.23-6.85,12-6.85,20.32,0,7.36,1.88,13.62,5.63,18.77,3.75,5.15,8.96,9.09,15.62,11.81,6.66,2.72,14.26,4.08,22.8,4.08,7.29,0,14.08-.94,20.37-2.82M433.34,174.6v-55.32c0-4.05.51-8.06,1.55-12.04,1.03-3.97,2.74-7.6,5.13-10.88,2.39-3.28,5.58-5.91,9.55-7.89,3.98-1.99,8.91-2.98,14.8-2.98,3.61,0,6.55.4,8.83,1.22,2.28.81,3.76,1.4,4.42,1.77l5.63-30.7c-.66-.37-2.34-.9-5.02-1.6-2.69-.7-6.39-1.05-11.1-1.05-6.04,0-11.39.96-16.07,2.87-4.68,1.91-8.71,4.58-12.09,8-3.39,3.42-6.15,7.45-8.28,12.09-2.14,4.64-3.61,9.72-4.42,15.24l7.07,4.42v-40.41h-34.34v117.26h34.34ZM364.88,176.2c2.8-.55,4.97-1.16,6.51-1.82v-25.73c-1.11.44-2.74.88-4.91,1.32-2.17.44-4.47.66-6.9.66-4.86,0-7.89-1.58-9.11-4.75-1.21-3.16-1.82-7.29-1.82-12.37v-49.69h34.12v-26.5h-34.12V18.69h-34.34v14.8c0,5.67-.18,10.12-.55,13.36-.37,3.24-1.2,5.61-2.48,7.12-1.29,1.51-3.24,2.45-5.85,2.82-2.61.37-6.13.55-10.54.55h-7.62v26.5h27.05v59.4c0,7.36,1.25,13.29,3.75,17.78,2.5,4.49,5.8,7.89,9.88,10.21,4.09,2.32,8.5,3.86,13.25,4.64,4.75.77,9.37,1.16,13.86,1.16,3.75,0,7.03-.28,9.83-.83"/>
</svg>